<svg width="252" height="625" viewBox="0 0 252 625" fill="none" xmlns="http://www.w3.org/2000/svg">
<path d="M432.017 90.5142C463.191 118.647 489.433 151.533 507.672 189.5C523.586 222.626 525.596 259.59 530.746 296.03C535.379 328.813 529.895 361.526 536.565 393.95C547.318 446.218 603.873 496.672 582.026 545.296C562.274 589.255 493.724 577.742 447.831 591.437C409.709 602.813 372.898 615.014 333.391 619.492C292.062 624.177 250.658 628.061 210.193 618.373C166.125 607.823 121.069 592.879 88.7159 560.916C55.7744 528.372 40.9896 482.245 27.4175 437.802C13.6247 392.635 -13.6661 340.573 8.75436 299.072C33.3456 253.553 117.736 270.77 142.265 225.217C172.336 169.37 112.183 88.0958 149.808 37.1159C181.537 -5.87688 251.93 -4.03699 304.166 5.84673C354.913 15.4489 393.542 55.7927 432.017 90.5142Z" fill="#B3C85F"/>
</svg>
