<svg width="587" height="625" viewBox="0 0 587 625" fill="none" xmlns="http://www.w3.org/2000/svg">
<path d="M431.796 90.5143C462.971 118.648 489.212 151.533 507.451 189.5C523.365 222.626 525.375 259.59 530.525 296.03C535.158 328.813 529.674 361.527 536.345 393.95C547.097 446.218 603.652 496.672 581.805 545.296C562.053 589.255 493.503 577.742 447.61 591.437C409.488 602.813 372.678 615.014 333.17 619.492C291.842 624.177 250.437 628.061 209.973 618.374C165.904 607.823 120.849 592.879 88.4952 560.916C55.5537 528.372 40.7689 482.245 27.1968 437.802C13.404 392.635 -13.8868 340.573 8.53365 299.072C33.1249 253.553 117.515 270.77 142.044 225.217C172.116 169.37 111.962 88.0959 149.587 37.116C181.317 -5.87682 251.71 -4.03693 303.945 5.84679C354.692 15.449 393.321 55.7928 431.796 90.5143Z" fill="#AFD02B" fill-opacity="0.19"/>
</svg>
