<svg width="212" height="49" viewBox="0 0 212 49" fill="none" xmlns="http://www.w3.org/2000/svg">
<path d="M71.984 31.016H67.792L67.12 33H64.256L68.32 21.768H71.488L75.552 33H72.656L71.984 31.016ZM71.28 28.904L69.888 24.792L68.512 28.904H71.28ZM76.2449 28.552C76.2449 27.6667 76.4262 26.8773 76.7889 26.184C77.1622 25.4907 77.6582 24.952 78.2769 24.568C78.9062 24.1733 79.5889 23.976 80.3249 23.976C80.8902 23.976 81.3969 24.0773 81.8449 24.28C82.2929 24.472 82.6555 24.744 82.9329 25.096V24.072H85.6689V37.256H82.9329V31.88C82.6235 32.2533 82.2449 32.552 81.7969 32.776C81.3595 33 80.8582 33.112 80.2929 33.112C79.5675 33.112 78.8955 32.92 78.2769 32.536C77.6582 32.152 77.1622 31.6133 76.7889 30.92C76.4262 30.2267 76.2449 29.4373 76.2449 28.552ZM82.9329 28.536C82.9329 28.056 82.8369 27.656 82.6449 27.336C82.4635 27.0053 82.2235 26.76 81.9249 26.6C81.6262 26.4293 81.3115 26.344 80.9809 26.344C80.6609 26.344 80.3515 26.4293 80.0529 26.6C79.7542 26.76 79.5089 27.0053 79.3169 27.336C79.1249 27.6667 79.0289 28.072 79.0289 28.552C79.0289 29.032 79.1249 29.4373 79.3169 29.768C79.5089 30.088 79.7542 30.3333 80.0529 30.504C80.3515 30.664 80.6609 30.744 80.9809 30.744C81.3009 30.744 81.6102 30.664 81.9089 30.504C82.2182 30.3333 82.4635 30.0827 82.6449 29.752C82.8369 29.4213 82.9329 29.016 82.9329 28.536ZM96.4643 24.072V33H93.7283V31.784C93.4509 32.1787 93.0723 32.4987 92.5923 32.744C92.1229 32.9787 91.6003 33.096 91.0243 33.096C90.3416 33.096 89.7389 32.9467 89.2163 32.648C88.6936 32.3387 88.2883 31.896 88.0003 31.32C87.7123 30.744 87.5683 30.0667 87.5683 29.288V24.072H90.2883V28.92C90.2883 29.5173 90.4429 29.9813 90.7523 30.312C91.0616 30.6427 91.4776 30.808 92.0003 30.808C92.5336 30.808 92.9549 30.6427 93.2643 30.312C93.5736 29.9813 93.7283 29.5173 93.7283 28.92V24.072H96.4643ZM97.8855 28.52C97.8855 27.6027 98.0562 26.7973 98.3975 26.104C98.7495 25.4107 99.2242 24.8773 99.8215 24.504C100.419 24.1307 101.086 23.944 101.822 23.944C102.451 23.944 103 24.072 103.47 24.328C103.95 24.584 104.318 24.92 104.574 25.336V24.072H107.31V33H104.574V31.736C104.307 32.152 103.934 32.488 103.454 32.744C102.984 33 102.435 33.128 101.806 33.128C101.08 33.128 100.419 32.9413 99.8215 32.568C99.2242 32.184 98.7495 31.6453 98.3975 30.952C98.0562 30.248 97.8855 29.4373 97.8855 28.52ZM104.574 28.536C104.574 27.8533 104.382 27.3147 103.998 26.92C103.624 26.5253 103.166 26.328 102.622 26.328C102.078 26.328 101.614 26.5253 101.23 26.92C100.856 27.304 100.67 27.8373 100.67 28.52C100.67 29.2027 100.856 29.7467 101.23 30.152C101.614 30.5467 102.078 30.744 102.622 30.744C103.166 30.744 103.624 30.5467 103.998 30.152C104.382 29.7573 104.574 29.2187 104.574 28.536ZM119.672 31.016H115.48L114.808 33H111.944L116.008 21.768H119.176L123.24 33H120.344L119.672 31.016ZM118.968 28.904L117.576 24.792L116.2 28.904H118.968ZM129.916 23.976C130.962 23.976 131.794 24.3173 132.412 25C133.042 25.672 133.356 26.6 133.356 27.784V33H130.636V28.152C130.636 27.5547 130.482 27.0907 130.172 26.76C129.863 26.4293 129.447 26.264 128.924 26.264C128.402 26.264 127.986 26.4293 127.676 26.76C127.367 27.0907 127.212 27.5547 127.212 28.152V33H124.476V24.072H127.212V25.256C127.49 24.8613 127.863 24.552 128.332 24.328C128.802 24.0933 129.33 23.976 129.916 23.976ZM134.714 28.52C134.714 27.6027 134.884 26.7973 135.226 26.104C135.578 25.4107 136.052 24.8773 136.65 24.504C137.247 24.1307 137.914 23.944 138.65 23.944C139.279 23.944 139.828 24.072 140.298 24.328C140.778 24.584 141.146 24.92 141.402 25.336V24.072H144.138V33H141.402V31.736C141.135 32.152 140.762 32.488 140.282 32.744C139.812 33 139.263 33.128 138.634 33.128C137.908 33.128 137.247 32.9413 136.65 32.568C136.052 32.184 135.578 31.6453 135.226 30.952C134.884 30.248 134.714 29.4373 134.714 28.52ZM141.402 28.536C141.402 27.8533 141.21 27.3147 140.826 26.92C140.452 26.5253 139.994 26.328 139.45 26.328C138.906 26.328 138.442 26.5253 138.058 26.92C137.684 27.304 137.498 27.8373 137.498 28.52C137.498 29.2027 137.684 29.7467 138.058 30.152C138.442 30.5467 138.906 30.744 139.45 30.744C139.994 30.744 140.452 30.5467 140.826 30.152C141.21 29.7573 141.402 29.2187 141.402 28.536ZM148.853 21.16V33H146.117V21.16H148.853ZM159.956 24.072L154.356 37.24H151.412L153.46 32.696L149.828 24.072H152.884L154.948 29.656L156.996 24.072H159.956ZM164.577 33.128C163.798 33.128 163.105 32.9947 162.497 32.728C161.889 32.4613 161.409 32.0987 161.057 31.64C160.705 31.1707 160.508 30.648 160.465 30.072H163.169C163.201 30.3813 163.345 30.632 163.601 30.824C163.857 31.016 164.172 31.112 164.545 31.112C164.886 31.112 165.148 31.048 165.329 30.92C165.521 30.7813 165.617 30.6053 165.617 30.392C165.617 30.136 165.484 29.9493 165.217 29.832C164.95 29.704 164.518 29.5653 163.921 29.416C163.281 29.2667 162.748 29.112 162.321 28.952C161.894 28.7813 161.526 28.52 161.217 28.168C160.908 27.8053 160.753 27.32 160.753 26.712C160.753 26.2 160.892 25.736 161.169 25.32C161.457 24.8933 161.873 24.5573 162.417 24.312C162.972 24.0667 163.628 23.944 164.385 23.944C165.505 23.944 166.385 24.2213 167.025 24.776C167.676 25.3307 168.049 26.0667 168.145 26.984H165.617C165.574 26.6747 165.436 26.4293 165.201 26.248C164.977 26.0667 164.678 25.976 164.305 25.976C163.985 25.976 163.74 26.04 163.569 26.168C163.398 26.2853 163.313 26.4507 163.313 26.664C163.313 26.92 163.446 27.112 163.713 27.24C163.99 27.368 164.417 27.496 164.993 27.624C165.654 27.7947 166.193 27.9653 166.609 28.136C167.025 28.296 167.388 28.5627 167.697 28.936C168.017 29.2987 168.182 29.7893 168.193 30.408C168.193 30.9307 168.044 31.4 167.745 31.816C167.457 32.2213 167.036 32.5413 166.481 32.776C165.937 33.0107 165.302 33.128 164.577 33.128ZM171.243 23.144C170.763 23.144 170.368 23.0053 170.059 22.728C169.76 22.44 169.611 22.088 169.611 21.672C169.611 21.2453 169.76 20.8933 170.059 20.616C170.368 20.328 170.763 20.184 171.243 20.184C171.712 20.184 172.096 20.328 172.395 20.616C172.704 20.8933 172.859 21.2453 172.859 21.672C172.859 22.088 172.704 22.44 172.395 22.728C172.096 23.0053 171.712 23.144 171.243 23.144ZM172.603 24.072V33H169.867V24.072H172.603ZM178.218 33.128C177.439 33.128 176.746 32.9947 176.138 32.728C175.53 32.4613 175.05 32.0987 174.698 31.64C174.346 31.1707 174.148 30.648 174.106 30.072H176.81C176.842 30.3813 176.986 30.632 177.242 30.824C177.498 31.016 177.812 31.112 178.186 31.112C178.527 31.112 178.788 31.048 178.97 30.92C179.162 30.7813 179.258 30.6053 179.258 30.392C179.258 30.136 179.124 29.9493 178.858 29.832C178.591 29.704 178.159 29.5653 177.562 29.416C176.922 29.2667 176.388 29.112 175.962 28.952C175.535 28.7813 175.167 28.52 174.858 28.168C174.548 27.8053 174.394 27.32 174.394 26.712C174.394 26.2 174.532 25.736 174.81 25.32C175.098 24.8933 175.514 24.5573 176.058 24.312C176.612 24.0667 177.268 23.944 178.026 23.944C179.146 23.944 180.026 24.2213 180.666 24.776C181.316 25.3307 181.69 26.0667 181.786 26.984H179.258C179.215 26.6747 179.076 26.4293 178.842 26.248C178.618 26.0667 178.319 25.976 177.946 25.976C177.626 25.976 177.38 26.04 177.21 26.168C177.039 26.2853 176.954 26.4507 176.954 26.664C176.954 26.92 177.087 27.112 177.354 27.24C177.631 27.368 178.058 27.496 178.634 27.624C179.295 27.7947 179.834 27.9653 180.25 28.136C180.666 28.296 181.028 28.5627 181.338 28.936C181.658 29.2987 181.823 29.7893 181.834 30.408C181.834 30.9307 181.684 31.4 181.386 31.816C181.098 32.2213 180.676 32.5413 180.122 32.776C179.578 33.0107 178.943 33.128 178.218 33.128Z" fill="#B8E115"/>
<path d="M39.3983 34.7083H47.25C53.049 34.7083 57.75 31.052 57.75 26.5417C57.75 22.7112 54.3594 19.4966 49.7851 18.6146C49.8445 18.2008 49.875 17.7803 49.875 17.3542C49.875 11.1525 43.4111 6.125 35.4375 6.125C28.824 6.125 23.249 9.58365 21.5396 14.3023C21.3609 14.2952 21.181 14.2917 21 14.2917C15.201 14.2917 10.5 17.948 10.5 22.4583C10.5 22.5742 10.5031 22.6896 10.5093 22.8043C7.44579 23.6431 5.25 25.9138 5.25 28.5833C5.25 31.9661 8.77576 34.7083 13.125 34.7083H20.6017L31.8459 19.4037C33.1814 17.5859 36.75 18.323 36.75 20.4167V28.5833H39.375C41.3905 28.5833 42.6541 30.2769 41.6541 31.638L39.3983 34.7083Z" fill="#AED123"/>
<path d="M23.625 34.7083L34.125 20.4167V30.625H39.375L28.875 44.9167V34.7083H23.625Z" fill="#AED123"/>
</svg>
